<?xml version="1.0" encoding="UTF-8"?>
<!DOCTYPE svg PUBLIC "-//W3C//DTD SVG 1.1//EN" "http://www.w3.org/Graphics/SVG/1.1/DTD/svg11.dtd">
<svg version="1.1" xmlns="http://www.w3.org/2000/svg" xmlns:xlink="http://www.w3.org/1999/xlink" x="0" y="0" width="545" height="500" viewBox="0, 0, 545, 500">
  <g id="Layer_1">
    <path d="M422.187,234.489 C489.279,282.68 449.845,328.923 478.92,360.823 C412.045,362.164 408.129,287.194 422.187,234.489" fill="#AE669C"/>
    <path d="M401.18,243.532 C460.14,247.998 473.872,320 502.72,329.473 C425.909,397.06 436.446,277.984 401.18,243.532" fill="#E25F8B"/>
    <path d="M183.613,348.11 C147.257,367.777 118.259,395.969 108.628,446.607 L69.937,437.995 C73.534,380.785 105.462,327.649 139.397,299.622 C154.136,315.785 168.874,331.948 183.613,348.11" fill="#D87170"/>
    <path d="M395.557,334.243 C384.107,372.834 383.148,410.968 409.808,447.889 L378.314,471.599 C343.321,435.307 329.934,380.334 334.302,338.628 C354.721,337.167 375.138,335.704 395.557,334.243" fill="#D87170"/>
    <path d="M395.328,232.775 C444.664,142.112 496.891,302.209 541.657,296.135 C422.647,405.55 427.261,234.281 395.328,232.775" fill="#F2C2D0"/>
    <path d="M159.379,131.587 C247.212,131.243 224.667,219.531 290.163,185.326 C257.769,291.78 164.664,243.4 159.379,131.587" fill="#F2C2D0"/>
    <path d="M159.379,131.587 C218.339,136.056 232.069,208.057 260.919,217.531 C184.108,285.117 194.645,166.038 159.379,131.587" fill="#E25F8B"/>
    <path d="M95.477,89.526 C107.541,86.15 125.01,103.484 131.335,115.677 C137.664,127.871 133.01,140.49 120.945,143.864 C108.883,147.239 93.973,140.09 87.647,127.897 C81.321,115.703 83.414,92.9 95.477,89.526" fill="#E78281"/>
    <path d="M135.478,126.094 L86.62,2.51 L100.105,136.264 L135.478,126.094" fill="#FBE0DC"/>
    <path d="M98.045,31.414 L94.008,21.201 L88.466,20.839 L89.477,30.854 L98.045,31.414 z M106.455,52.684 L102.417,42.474 L90.571,41.7 L91.58,51.71 L106.455,52.684 z M114.864,73.954 L110.828,63.742 L92.672,62.557 L93.683,72.568 L114.864,73.954 z M123.273,95.224 L119.237,85.014 L94.776,83.414 L95.785,93.426 L123.273,95.224 z M131.683,116.494 L127.646,106.283 L96.878,104.272 L97.889,114.285 L131.683,116.494" fill="#BA335C"/>
    <path d="M329.438,231.601 C370.811,206.59 420.707,227.088 420.707,284.154 C420.707,353.982 352.58,398.416 254.568,390.756 C199.338,386.44 121.25,363.09 119.032,238.624 C118.869,229.548 119.097,221.285 119.47,213.853 C117.563,214.535 115.626,215.189 113.657,215.805 C80.034,226.332 53.206,228.672 48.717,220.392 C46.476,216.258 41.364,218.371 34.664,217.406 C21.646,215.531 8.032,203.912 2.754,183.031 C-1.594,165.832 50.995,159.516 67.123,141.376 C83.251,123.237 96.318,121.948 107.944,121.323 C109.878,107.257 116.836,91.812 126.441,88.806 C139.56,84.699 152.74,105.323 156.332,120.385 C159.823,135.012 164.385,146.959 171.334,159.689 C193.034,199.443 212.978,302.006 329.438,231.601" fill="#EA8F90"/>
    <path d="M396.108,348.333 C367.908,379.181 317.375,395.663 254.568,390.756 C199.338,386.44 121.25,363.09 119.032,238.624 C118.869,229.548 119.097,221.285 119.47,213.853 C141.891,202.058 150.262,183.346 140.602,155.758 C153.908,182.237 153.335,206.465 131.347,219.49 C143.414,380.248 255.562,384.237 396.108,348.333" fill="#E78280"/>
    <path d="M50.34,222.274 C49.646,221.723 49.098,221.097 48.717,220.392 C47.755,218.616 46.261,217.993 44.341,217.783 C65.776,218.205 74.239,208.735 81.05,198.001 C78.197,210.675 68.65,217.352 50.34,222.274" fill="#913D3E"/>
    <path d="M123.816,152.881 C123.543,156.053 121.402,158.875 118.152,160.807 L119.59,167.74 L115.487,162.096 C113.591,162.824 111.463,163.294 109.199,163.437 L107.144,171.813 L106.459,163.448 C104.36,163.331 102.374,162.932 100.579,162.306 L96.177,168.712 L98.054,161.209 C94.405,159.28 91.964,156.281 91.673,152.881 C94.616,156.589 100.707,159.135 107.746,159.135 C114.782,159.135 120.873,156.589 123.816,152.881" fill="#161715"/>
    <path d="M107.944,121.323 C75.277,152.781 19.906,138.555 31.052,86.609 C41.749,110.834 83.773,90.208 107.944,121.323" fill="#E25F8B"/>
    <path d="M23.766,180.511 C25.146,180.511 26.869,182.375 27.61,184.675 C28.354,186.975 27.838,188.839 26.458,188.839 C25.079,188.839 23.357,186.975 22.615,184.675 C21.872,182.375 22.388,180.511 23.766,180.511" fill="#161715"/>
    <path d="M107.944,121.323 C87.429,159.639 28.558,162.026 20.859,110.785 C39.892,130.214 73.363,99.303 107.944,121.323" fill="#AE669C"/>
    <path d="M159.379,131.587 C226.473,179.778 187.039,226.02 216.113,257.92 C149.238,259.261 145.321,184.292 159.379,131.587" fill="#AE669C"/>
    <path d="M415.406,316.264 C416.96,356.488 428.302,392.907 465.409,419.307 L443.201,451.88 C398.404,428.75 368.067,380.993 358.806,340.095 C377.673,332.151 396.54,324.206 415.406,316.264" fill="#EA8F90"/>
    <path d="M220.617,350.386 C191.743,382.296 172.242,419.592 177.42,471.068 L138.348,477.053 C125.6,421.56 140.833,359.569 165.054,320.627 C183.576,330.547 202.096,340.466 220.617,350.386" fill="#EA8F90"/>
    <path d="M69.937,437.995 L64.534,457.433 L106.362,468.168 L108.628,446.607 L69.937,437.995" fill="#161715"/>
    <path d="M138.348,477.053 L136.714,496.669 L182.983,496.669 L177.42,471.068 L138.348,477.053" fill="#161715"/>
    <path d="M465.409,419.307 L480.585,430.784 L459.487,465.949 L443.201,451.88 L465.409,419.307" fill="#161715"/>
    <path d="M378.314,471.599 L387.308,492.599 L420.065,463.727 L409.808,447.889 L378.314,471.599" fill="#161715"/>
    <path d="M67.683,248.116 L68.592,250.936 L71.555,250.929 L69.155,252.664 L70.077,255.482 L67.683,253.736 L65.29,255.482 L66.209,252.664 L63.809,250.929 L66.773,250.936 L67.683,248.116 z M25.854,315.485 L27.841,321.635 L34.304,321.621 L29.067,325.411 L31.078,331.555 L25.854,327.744 L20.634,331.555 L22.642,325.411 L17.405,321.621 L23.871,321.635 L25.854,315.485 z M76.894,279.703 L77.473,281.498 L79.359,281.494 L77.831,282.599 L78.418,284.392 L76.894,283.281 L75.372,284.392 L75.957,282.599 L74.43,281.494 L76.317,281.498 L76.894,279.703 z M531.852,123.005 L532.597,125.312 L535.021,125.306 L533.057,126.728 L533.811,129.031 L531.852,127.603 L529.895,129.031 L530.649,126.728 L528.685,125.306 L531.109,125.312 L531.852,123.005 z M500.39,89.692 L501.052,91.741 L503.207,91.738 L501.461,93.002 L502.131,95.049 L500.39,93.778 L498.65,95.049 L499.32,93.002 L497.574,91.738 L499.729,91.741 L500.39,89.692 z M356.772,181.489 L357.433,183.539 L359.587,183.535 L357.843,184.798 L358.511,186.846 L356.772,185.574 L355.032,186.846 L355.702,184.798 L353.956,183.535 L356.109,183.539 L356.772,181.489 z M437.094,145.213 L438.998,151.109 L445.191,151.097 L440.174,154.727 L442.099,160.615 L437.094,156.965 L432.09,160.615 L434.015,154.727 L428.999,151.097 L435.192,151.109 L437.094,145.213 z M406.373,83.028 L407.198,85.591 L409.892,85.586 L407.71,87.165 L408.547,89.725 L406.373,88.137 L404.197,89.725 L405.033,87.165 L402.851,85.586 L405.544,85.591 L406.373,83.028 z M350.849,13.441 L351.676,16.002 L354.369,15.998 L352.188,17.576 L353.024,20.136 L350.849,18.55 L348.673,20.136 L349.511,17.576 L347.329,15.998 L350.021,16.002 L350.849,13.441 z M450.791,50.455 L452.28,55.068 L457.126,55.058 L453.199,57.901 L454.707,62.508 L450.791,59.652 L446.875,62.508 L448.38,57.901 L444.455,55.058 L449.301,55.068 L450.791,50.455 z M481.881,136.33 L483.703,141.969 L489.627,141.957 L484.828,145.432 L486.668,151.062 L481.881,147.571 L477.096,151.062 L478.937,145.432 L474.137,141.957 L480.062,141.969 L481.881,136.33 z M511.496,211.84 L513.646,218.504 L520.648,218.49 L514.975,222.596 L517.152,229.251 L511.496,225.124 L505.839,229.251 L508.014,222.596 L502.342,218.49 L509.343,218.504 L511.496,211.84 z M396.746,134.109 L398.07,138.211 L402.379,138.2 L398.888,140.729 L400.227,144.824 L396.746,142.282 L393.265,144.824 L394.604,140.729 L391.115,138.2 L395.423,138.211 L396.746,134.109 z M254.608,113.38 L257.585,122.608 L267.281,122.589 L259.427,128.272 L262.442,137.488 L254.608,131.774 L246.776,137.488 L249.791,128.272 L241.935,122.589 L251.63,122.608 L254.608,113.38 z M161.331,6.038 L163.316,12.189 L169.78,12.175 L164.542,15.965 L166.552,22.109 L161.331,18.298 L156.108,22.109 L158.118,15.965 L152.88,12.175 L159.344,12.189 L161.331,6.038 z M213.522,74.886 L216.086,82.83 L224.435,82.813 L217.671,87.707 L220.266,95.644 L213.522,90.722 L206.778,95.644 L209.373,87.707 L202.608,82.813 L210.957,82.83 L213.522,74.886 z M297.546,174.825 L298.705,178.414 L302.474,178.407 L299.419,180.616 L300.592,184.201 L297.546,181.98 L294.5,184.201 L295.671,180.616 L292.618,178.407 L296.388,178.414 L297.546,174.825 z M338.632,131.148 L340.04,135.505 L344.617,135.496 L340.909,138.181 L342.332,142.531 L338.632,139.834 L334.933,142.531 L336.357,138.181 L332.649,135.496 L337.226,135.505 L338.632,131.148 z M335.3,72.665 L337.287,78.815 L343.75,78.802 L338.513,82.592 L340.523,88.735 L335.3,84.925 L330.079,88.735 L332.088,82.592 L326.853,78.802 L333.315,78.815 L335.3,72.665 z M265.713,54.158 L268.36,62.359 L276.978,62.342 L269.997,67.395 L272.675,75.585 L265.713,70.506 L258.75,75.585 L261.429,67.395 L254.447,62.342 L263.066,62.359 L265.713,54.158" fill="#F8C823"/>
  </g>
</svg>
